<?xml version="1.0" standalone="no"?>
<!DOCTYPE svg PUBLIC "-//W3C//DTD SVG 20010904//EN"
 "http://www.w3.org/TR/2001/REC-SVG-20010904/DTD/svg10.dtd">
<svg version="1.0" xmlns="http://www.w3.org/2000/svg"
 width="256.000000pt" height="256.000000pt" viewBox="0 0 256.000000 256.000000"
 preserveAspectRatio="xMidYMid meet">

<g transform="translate(0.000000,256.000000) scale(0.100000,-0.100000)"
fill="#000000" stroke="none">
<path d="M1569 2545 c-126 -34 -227 -115 -284 -228 l-37 -72 -57 56 c-67 65
-145 106 -233 121 -88 15 -131 5 -178 -42 -47 -47 -57 -90 -43 -175 16 -92 58
-172 127 -240 89 -88 198 -135 314 -135 l52 0 0 -49 c0 -53 17 -81 50 -81 41
0 50 25 50 146 l0 114 53 0 c197 0 382 143 431 335 22 82 20 133 -7 180 -43
76 -128 101 -238 70z m142 -106 c18 -18 21 -29 15 -73 -8 -69 -57 -166 -107
-211 -44 -40 -121 -79 -179 -90 l-35 -7 58 60 c61 65 73 103 38 122 -35 18
-51 11 -112 -47 l-59 -56 6 34 c24 130 135 248 261 278 63 15 92 12 114 -10z
m-675 -149 c96 -47 169 -144 188 -249 l6 -34 -50 47 c-52 48 -78 56 -104 30
-26 -26 -18 -52 30 -104 l47 -50 -34 6 c-144 26 -269 158 -286 302 -5 43 -2
53 17 72 19 19 29 22 74 16 28 -3 79 -19 112 -36z"/>
<path d="M411 2164 c-16 -12 -21 -26 -21 -60 l0 -44 -43 0 c-30 0 -49 -6 -60
-18 -38 -41 -9 -82 58 -82 l44 0 3 -52 c3 -48 6 -54 32 -63 24 -8 31 -6 47 14
11 14 19 39 19 62 l0 39 43 0 c50 0 67 13 67 52 0 33 -24 48 -74 48 -35 0 -36
1 -36 38 0 61 -39 94 -79 66z"/>
<path d="M1972 2158 c-17 -17 -15 -54 4 -73 23 -22 56 -15 73 17 14 24 14 28
-3 47 -21 23 -56 27 -74 9z"/>
<path d="M2086 1908 c-9 -12 -16 -39 -16 -60 l0 -38 -43 0 c-50 0 -67 -13 -67
-52 0 -33 24 -48 74 -48 35 0 36 -1 36 -36 0 -50 15 -74 48 -74 39 0 52 17 52
67 l0 43 39 0 c23 0 48 8 62 19 20 16 22 23 14 47 -9 26 -15 29 -63 32 l-52 3
0 49 c0 39 -4 52 -19 60 -30 16 -48 12 -65 -12z"/>
<path d="M637 1742 c-22 -24 -21 -45 1 -65 35 -32 82 -10 82 38 0 42 -54 59
-83 27z"/>
<path d="M1416 1626 c-20 -24 -53 -55 -74 -68 -36 -22 -46 -23 -308 -28 l-271
-5 -69 -35 c-78 -40 -134 -104 -154 -177 -11 -38 -16 -43 -41 -43 -50 0 -59
-20 -59 -135 l0 -104 -43 -19 c-52 -23 -104 -81 -112 -124 -3 -18 -5 -168 -3
-333 3 -284 4 -303 25 -347 30 -66 105 -143 172 -175 l56 -28 745 0 745 0 56
28 c67 32 142 109 172 175 21 44 22 63 25 347 2 165 0 315 -3 333 -8 43 -60
101 -112 124 l-43 19 0 104 c0 114 -9 135 -58 135 -24 0 -30 7 -45 50 -42 119
-142 192 -289 209 -94 11 -153 42 -191 100 -38 58 -72 57 -121 -3z m184 -174
c19 -8 71 -19 115 -24 98 -11 154 -41 190 -102 14 -23 25 -46 25 -49 0 -4
-292 -7 -650 -7 -357 0 -650 3 -650 7 0 26 57 96 98 120 l47 28 275 5 275 5
52 29 c29 16 62 39 73 51 l22 23 46 -35 c26 -20 63 -43 82 -51z m420 -352 l0
-70 -263 0 c-272 0 -286 -2 -300 -42 -3 -9 2 -26 11 -37 16 -20 29 -21 340
-23 l324 -3 24 -29 25 -28 -3 -297 c-3 -281 -4 -298 -25 -336 -25 -47 -64 -85
-113 -111 -33 -18 -72 -19 -760 -19 -688 0 -727 1 -760 19 -49 26 -88 64 -113
111 -21 38 -22 55 -25 336 l-3 297 25 28 24 29 324 3 c311 2 324 3 340 23 9
11 14 28 11 37 -14 40 -28 42 -300 42 l-263 0 0 70 0 70 740 0 740 0 0 -70z"/>
<path d="M1245 1010 c-15 -16 -17 -26 -9 -48 8 -22 15 -27 44 -27 29 0 36 5
44 27 8 22 6 32 -9 48 -10 11 -26 20 -35 20 -9 0 -25 -9 -35 -20z"/>
<path d="M1161 743 c-83 -41 -139 -130 -140 -224 -2 -99 49 -184 140 -234 137
-74 313 -4 364 144 58 171 -64 341 -245 341 -51 0 -78 -6 -119 -27z m188 -88
c16 -8 40 -28 54 -45 95 -113 -19 -289 -162 -250 -79 21 -132 105 -117 184 7
39 57 103 90 116 34 14 105 11 135 -5z"/>
</g>
</svg>
