<?xml version="1.0" standalone="no"?>
<!DOCTYPE svg PUBLIC "-//W3C//DTD SVG 20010904//EN"
 "http://www.w3.org/TR/2001/REC-SVG-20010904/DTD/svg10.dtd">
<svg version="1.0" xmlns="http://www.w3.org/2000/svg"
 width="512.000000pt" height="512.000000pt" viewBox="0 0 512.000000 512.000000"
 preserveAspectRatio="xMidYMid meet">

<g transform="translate(0.000000,512.000000) scale(0.100000,-0.100000)"
fill="#000000" stroke="none">
<path d="M3180 5101 c-293 -64 -540 -269 -651 -540 -18 -45 -36 -78 -39 -74
-126 159 -232 241 -400 310 -165 69 -346 81 -445 31 -145 -75 -206 -215 -175
-404 47 -295 239 -550 507 -676 124 -58 217 -79 358 -81 l120 -2 5 -108 c5
-104 6 -110 33 -133 38 -33 96 -33 134 0 l28 24 3 235 3 234 127 6 c153 6 225
24 357 86 271 128 458 378 505 675 25 150 -7 264 -96 346 -93 85 -208 107
-374 71z m205 -195 c19 -8 44 -30 55 -48 18 -28 21 -43 16 -106 -24 -306 -290
-584 -601 -627 l-50 -7 118 120 c112 114 117 121 117 161 0 77 -76 124 -143
90 -12 -6 -70 -59 -129 -117 l-107 -105 6 44 c18 142 93 291 202 400 104 103
210 161 356 194 80 18 119 18 160 1z m-1410 -281 c177 -59 330 -193 410 -359
39 -83 53 -127 69 -225 6 -33 3 -31 -93 62 -94 91 -103 97 -141 97 -76 0 -123
-76 -89 -143 6 -12 50 -61 98 -110 85 -86 85 -87 51 -81 -96 17 -163 38 -240
76 -116 58 -238 178 -298 294 -43 84 -82 220 -82 287 0 49 23 93 63 118 43 27
143 21 252 -16z"/>
<path d="M821 4334 c-33 -24 -51 -74 -51 -147 l0 -64 -87 -5 c-82 -4 -87 -6
-116 -38 -25 -28 -29 -38 -24 -74 9 -67 40 -86 143 -86 l84 0 1 -67 c0 -93 16
-134 60 -157 40 -21 72 -18 110 13 21 17 25 29 29 113 l5 93 93 5 c84 4 96 8
113 29 40 50 34 109 -15 145 -21 16 -46 22 -112 25 l-84 3 0 85 c0 80 -2 86
-29 114 -34 34 -83 39 -120 13z"/>
<path d="M3949 4311 c-78 -79 8 -205 108 -157 65 31 76 114 21 161 -42 35 -91
34 -129 -4z"/>
<path d="M4179 3831 c-27 -28 -29 -34 -29 -114 l0 -85 -84 -3 c-66 -3 -91 -9
-112 -25 -49 -36 -55 -95 -15 -145 17 -21 29 -25 113 -29 l93 -5 5 -93 c4 -84
8 -96 29 -113 38 -31 70 -34 110 -13 44 23 60 64 60 157 l1 67 84 0 c74 0 88
3 111 23 34 29 44 87 20 123 -23 36 -73 54 -150 54 l-65 0 0 65 c0 109 -37
165 -108 165 -24 0 -42 -9 -63 -29z"/>
<path d="M1280 3493 c-76 -68 -14 -187 87 -168 43 8 73 48 73 96 0 52 -33 89
-86 96 -35 4 -46 1 -74 -24z"/>
<path d="M2914 3337 c-12 -7 -48 -46 -81 -88 -65 -82 -133 -132 -228 -170 -60
-23 -64 -24 -565 -29 -449 -5 -511 -8 -560 -24 -98 -32 -173 -78 -251 -156
-82 -82 -138 -178 -161 -277 l-13 -53 -48 0 c-58 0 -99 -19 -115 -55 -8 -17
-12 -93 -12 -230 0 -173 -2 -205 -15 -205 -8 0 -39 -9 -70 -21 -78 -29 -164
-111 -201 -191 l-29 -63 0 -605 0 -605 23 -75 c36 -115 86 -195 176 -286 91
-90 171 -140 286 -176 l75 -23 1435 0 1435 0 75 23 c115 36 195 86 286 176 90
91 140 171 176 286 l23 75 0 605 0 605 -29 63 c-37 80 -123 162 -201 191 -31
12 -62 21 -70 21 -13 0 -15 32 -15 205 0 224 -5 251 -55 273 -14 7 -47 12 -73
12 l-47 0 -13 53 c-22 95 -79 194 -156 272 -121 122 -227 170 -416 185 -200
16 -311 73 -407 208 -25 34 -54 69 -66 77 -26 18 -64 19 -93 2z m251 -412
c109 -52 152 -63 295 -74 90 -7 122 -14 175 -39 100 -47 187 -147 219 -249 l7
-23 -1301 0 -1301 0 7 23 c32 103 119 201 222 250 l67 32 505 6 c426 5 514 8
560 22 92 27 212 93 275 150 l60 54 60 -54 c37 -34 94 -71 150 -98z m875 -725
l0 -140 -515 0 c-554 0 -563 -1 -599 -51 -26 -37 -21 -86 13 -120 l29 -29 604
0 c332 -1 623 -5 647 -9 57 -11 91 -37 119 -91 l22 -44 -1 -546 c0 -482 -2
-553 -17 -611 -32 -121 -111 -224 -225 -293 -116 -69 -45 -66 -1564 -65 -1260
0 -1373 2 -1434 17 -121 32 -224 111 -293 225 -64 107 -66 133 -66 734 l0 539
23 44 c27 54 61 80 118 91 24 4 315 8 647 9 l604 0 29 29 c34 34 39 83 13 120
-36 50 -45 51 -599 51 l-515 0 0 140 0 140 1480 0 1480 0 0 -140z"/>
<path d="M2524 2046 c-69 -30 -85 -106 -35 -157 41 -41 101 -41 142 0 51 52
33 128 -37 157 -39 16 -32 16 -70 0z"/>
<path d="M2465 1540 c-287 -62 -468 -328 -415 -611 28 -147 148 -304 280 -366
208 -98 434 -61 593 98 206 205 209 524 7 730 -63 63 -120 100 -206 129 -66
23 -198 34 -259 20z m223 -220 c62 -28 135 -101 164 -164 33 -73 32 -191 -2
-261 -119 -245 -460 -245 -581 0 -33 69 -34 187 -1 260 41 89 127 161 219 185
53 13 147 4 201 -20z"/>
</g>
</svg>
